<svg id="face_male" xmlns="http://www.w3.org/2000/svg" width="24" height="24" viewBox="0 0 24 24">
  <path id="Icon_color" data-name="Icon color" d="M8.9,20H7.1a6.026,6.026,0,0,1-3.74-1.309L3,18.4a7.961,7.961,0,0,1-3-6.24V6a6.005,6.005,0,0,1,.81-3A6.042,6.042,0,0,1,0,.53.5.5,0,0,1,.136.157.508.508,0,0,1,.5,0H10a6.007,6.007,0,0,1,6,6v6.16a7.96,7.96,0,0,1-3,6.24l-.36.291A6.021,6.021,0,0,1,8.9,20ZM6.521,4.63A8.01,8.01,0,0,1,2,7.74v4.42a5.97,5.97,0,0,0,2.25,4.68l.36.29A4.016,4.016,0,0,0,7.1,18H8.9a4.016,4.016,0,0,0,2.49-.87l.36-.29A5.973,5.973,0,0,0,14,12.16V8A10.009,10.009,0,0,1,6.521,4.63Zm1.5,12.15a2.5,2.5,0,0,1-2.5-2.5.251.251,0,0,1,.06-.2A.229.229,0,0,1,5.755,14h4.492a.229.229,0,0,1,.174.079.25.25,0,0,1,.059.2h.041A2.5,2.5,0,0,1,8.021,16.78ZM11.709,11H9.243a.226.226,0,0,1-.181-.09A.27.27,0,0,1,9,10.7a1.515,1.515,0,0,1,1.476-1.2h.054A1.517,1.517,0,0,1,12,10.7a.266.266,0,0,1-.11.21A.229.229,0,0,1,11.709,11Zm-5,0H4.241A.251.251,0,0,1,4,10.7,1.494,1.494,0,0,1,5.462,9.5h.062A1.517,1.517,0,0,1,7,10.7a.271.271,0,0,1-.11.21A.229.229,0,0,1,6.709,11Z" transform="translate(3.999 2)" fill="#004faa"/>
</svg>
