<svg xmlns="http://www.w3.org/2000/svg" width="24" height="24" viewBox="0 0 24 24">
  <g id="youtube" opacity="0.3">
    <path id="Icon_color" data-name="Icon color" d="M11.03,15.995a64.378,64.378,0,0,1-6.57-.337L3,15.508A3.37,3.37,0,0,1,0,12.1V3.9A3.369,3.369,0,0,1,3,.488L4.4.337a64.117,64.117,0,0,1,13.14,0L19,.488A3.368,3.368,0,0,1,22,3.9v8.2a3.37,3.37,0,0,1-3,3.41l-1.4.149A64.378,64.378,0,0,1,11.03,15.995ZM9.75,4.649A.75.75,0,0,0,9,5.4v5.2a.751.751,0,0,0,1.111.62L14,8.617h.06a.741.741,0,0,0,0-1.24l-3.891-2.6A.748.748,0,0,0,9.75,4.649Z" transform="translate(1 4.003)" fill="#111e2f"/>
  </g>
</svg>
